<?xml version="1.0" standalone="no"?>
<!DOCTYPE svg PUBLIC "-//W3C//DTD SVG 20010904//EN"
 "http://www.w3.org/TR/2001/REC-SVG-20010904/DTD/svg10.dtd">
<svg version="1.0" xmlns="http://www.w3.org/2000/svg"
 width="480.000000pt" height="480.000000pt" viewBox="0 0 480.000000 480.000000"
 preserveAspectRatio="xMidYMid meet">
<metadata>
Created by potrace 1.14, written by Peter Selinger 2001-2017
</metadata>
<g transform="translate(0.000000,480.000000) scale(0.100000,-0.100000)"
fill="#000000" stroke="none">
<path d="M1289 3816 c-2 -2 -32 -6 -67 -9 -34 -4 -66 -8 -70 -11 -4 -2 -23 -7
-43 -10 -40 -6 -39 -6 -124 -32 -33 -11 -62 -21 -65 -24 -3 -3 -12 -6 -19 -8
-21 -5 -181 -82 -211 -102 -14 -9 -47 -32 -75 -50 -128 -86 -264 -221 -367
-365 -37 -51 -110 -187 -140 -260 -42 -102 -47 -115 -41 -115 3 0 0 -7 -7 -15
-7 -8 -10 -15 -6 -15 3 0 0 -16 -8 -35 -8 -19 -13 -35 -12 -35 2 0 0 -17 -5
-37 -33 -134 -33 -428 -1 -588 27 -133 100 -316 176 -440 109 -181 311 -385
471 -475 98 -56 144 -79 195 -100 30 -12 64 -26 75 -30 31 -13 98 -33 115 -35
9 0 21 -4 28 -9 6 -4 12 -5 12 -2 0 2 15 0 33 -5 100 -30 478 -33 557 -5 8 3
29 7 45 9 134 19 420 155 555 263 103 82 244 228 274 283 5 9 12 18 15 21 7 6
37 50 63 95 27 46 108 215 108 226 0 5 5 17 10 27 15 26 60 209 68 277 8 68 7
365 -1 410 -7 33 -23 110 -36 165 -20 84 -92 250 -149 345 -55 92 -65 105 -71
105 -4 0 -12 10 -18 23 -19 41 -136 166 -223 237 -30 25 -57 47 -60 50 -3 3
-25 18 -50 34 -25 16 -56 37 -70 46 -57 38 -264 129 -330 145 -8 2 -46 11 -85
20 -38 9 -81 19 -95 21 -35 7 -345 15 -351 10z"/>
<path d="M4577 3594 c-1 -1 -58 -5 -127 -9 -69 -3 -141 -8 -160 -10 -19 -1
-93 -6 -165 -10 -71 -3 -152 -8 -180 -10 -27 -2 -90 -7 -140 -10 -49 -3 -119
-8 -155 -10 -36 -2 -110 -7 -165 -10 -97 -6 -122 -7 -330 -20 -172 -11 -194
-14 -220 -31 -58 -38 -60 -58 -40 -499 2 -60 7 -182 10 -270 21 -585 27 -730
30 -810 2 -44 7 -165 10 -270 9 -250 9 -255 26 -289 26 -53 65 -64 259 -71 96
-3 202 -8 235 -10 33 -2 130 -7 215 -10 85 -3 187 -8 225 -10 39 -2 135 -7
215 -10 80 -3 181 -8 225 -10 292 -15 354 -16 389 -1 70 29 66 -47 66 1186 0
1234 4 1157 -66 1186 -28 12 -146 17 -157 8z"/>
</g>
</svg>
